# AST/ASF file generated using VICON BodyLanguage
# -----------------------------------------------
:version 1.10
:name VICON
:units
  mass 1.0
  length 0.45
  angle deg
:documentation
   .ast/.asf automatically generated from VICON data using
   VICON BodyBuilder and BodyLanguage model FoxedUp or BRILLIANT.MOD
:root
   order TX TY TZ RX RY RZ
   axis XYZ
   position 0 0 0  
   orientation 0 0 0 
:bonedata
  begin
     id 1 
     name lhipjoint
     direction 0.660183 -0.676772 0.325788 
     length 2.75133 
     axis 0 0 0  XYZ
  end
  begin
     id 2 
     name lfemur
     direction 0.34202 -0.939693 0  
     length 7.70317  
     axis 0 0 20  XYZ
    dof rx ry rz
    limits (-160.0 20.0)
           (-70.0 70.0)
           (-60.0 70.0)
  end
  begin
     id 3 
     name ltibia
     direction 0.342105 -0.939662 0   
     length 7.18701   
     axis 0 0 20   XYZ
    dof rx
    limits (-10.0 170.0)
  end
  begin
     id 4 
     name lfoot
     direction 0.14163 -0.389126 0.910232   
     length 2.41719   
     axis -90 7.62852e-016 20   XYZ
    dof rx rz
    limits (-45.0 90.0)
           (-70.0 20.0)
  end
  begin
     id 5 
     name ltoes
     direction 1.53533e-011 -4.21926e-011 1   
     length 1.18611   
     axis -90 7.62852e-016 20   XYZ
    dof rx
    limits (-90.0 20.0)
  end
  begin
     id 6 
     name rhipjoint
     direction -0.6658 -0.67229 0.323631   
     length 2.76968  
     axis 0 0 0  XYZ 
  end
  begin
     id 7 
     name rfemur
     direction -0.34202 -0.939693 0   
     length 7.92547   
     axis 0 0 -20   XYZ
    dof rx ry rz
    limits (-160.0 20.0)
           (-70.0 70.0)
           (-70.0 60.0)
  end
  begin
     id 8 
     name rtibia
     direction -0.342022 -0.939692 0   
     length 7.22641   
     axis 0 0 -20   XYZ
    dof rx
    limits (-10.0 170.0)
 end
 begin
     id 9 
     name rfoot
     direction -0.105675 -0.29034 0.951071   
     length 2.48149  
     axis -90 -7.62852e-016 -20   XYZ
    dof rx rz
    limits (-45.0 90.0)
           (-20.0 70.0)
  end
  begin
     id 10 
     name rtoes
     direction -1.5349e-011 -4.21859e-011 1   
     length 1.23343   
     axis -90 -7.62852e-016 -20   XYZ
    dof rx
    limits (-90.0 20.0)
  end
  begin
     id 11 
     name lowerback
     direction 0.0104173 0.993624 -0.112266   
     length 2.00527   
     axis 0 0 0   XYZ
    dof rx ry rz
    limits (-20.0 45.0)
           (-30.0 30.0)
           (-30.0 30.0)
  end
  begin
     id 12 
     name upperback
     direction 0.00733149 0.999856 -0.0152913   
     length 2.01385   
     axis 0 0 0   XYZ
    dof rx ry rz
    limits (-20.0 45.0)
           (-30.0 30.0)
           (-30.0 30.0)
  end
  begin
     id 13 
     name thorax
     direction 0.0026304 0.999318 0.036841   
     length 2.03734   
     axis 0 0 0   XYZ
    dof rx ry rz
    limits (-20.0 45.0)
           (-30.0 30.0)
           (-30.0 30.0)
  end
  begin
     id 14 
     name lowerneck
     direction 0.0293154 0.998757 0.0403082   
     length 1.65303   
     axis 0 0 0   XYZ
    dof rx ry rz
    limits (-20.0 45.0)
           (-30.0 30.0)
           (-30.0 30.0)
  end
  begin
     id 15 
     name upperneck
     direction -0.0376619 0.998184 -0.0470083   
     length 1.60926   
     axis 0 0 0   XYZ
    dof rx ry rz
    limits (-20.0 45.0)
           (-30.0 30.0)
           (-30.0 30.0)
  end
  begin
     id 16
     name head
     direction -0.0170133 0.999635 -0.0209778  
     length 1.73625  
     axis 0 0 0   XYZ
    dof rx ry rz
    limits (-20.0 45.0)
           (-30.0 30.0)
           (-30.0 30.0)
  end
  begin
     id 17 
     name lclavicle
     direction 0.919857 0.39181 -0.0186333  
     length 3.75313  
     axis 0 0 0   XYZ
    dof ry rz
    limits (-20.0 10.0)
           (0.0 20.0)
  end
  begin
     id 18 
     name lhumerus
     direction 1 -4.48988e-011 1.44029e-027   
     length 5.49313   
     axis 180 -30 -90   XYZ
    dof rx ry rz
    limits (-60.0 90.0)
           (-90.0 90.0)
           (-90.0 90.0)
  end
  begin
     id 19
     name lradius
     direction 1 -4.48924e-011 7.46281e-027   
     length 3.29037   
     axis 180 -30 -90   XYZ
    dof rx
    limits (-10.0 170.0)
  end
  begin
     id 20
     name lwrist
     direction 1 -4.48955e-011 2.19879e-026   
     length 1.64519   
     axis -1.34358e-014 90 90   XYZ
    dof ry
    limits (-180.0 0.0)
 end
  begin
     id 21 
     name lhand
     direction 1 -4.48978e-011 4.39747e-026   
     length 0.729656   
     axis -2.80598e-014 90 90   XYZ
    dof rx rz
    limits (-90.0 90.0)
           (-45.0 45.0)
  end
  begin
     id 22 
     name lfingers
     direction 1 -4.49071e-011 8.79411e-026   
     length 0.588268   
     axis -5.61193e-014 90 90   XYZ
    dof rx
    limits (0.0 90.0)
  end
  begin
     id 23
     name lthumb
     direction 0.707107 -6.34817e-011 0.707107   
     length 0.844638   
     axis -90 45 -9.86923e-015   XYZ
    dof rx rz
    limits (-45.0 45.0)
           (-45.0 45.0)
  end
  begin
     id 24 
     name rclavicle
     direction -0.919898 0.388279 0.0550233   
     length 3.7171  
     axis 0 0 0   XYZ 
    dof ry rz
    limits (-10.0 20.0)
           (-20.0 0.0)
  end
  begin
     id 25 
     name rhumerus
     direction -1 -4.48968e-011 9.98372e-028  
     length 5.23684   
     axis 180 30 90   XYZ
    dof rx ry rz
    limits (-90.0 60.0)
           (-90.0 90.0)
           (-90.0 90.0)
  end
  begin
     id 26 
     name rradius
     direction -1 -4.48956e-011 1.01023e-026   
     length 3.38251   
     axis 180 30 90   XYZ
    dof rx
    limits (-10.0 170.0)
  end
  begin
     id 27 
     name rwrist
     direction -1 -4.4892e-011 2.19886e-026   
     length 1.69126   
     axis -1.34358e-014 -90 -90   XYZ
    dof ry
    limits (-180.0 0.0)
  end
  begin
     id 28
     name rhand
     direction -1 -4.49024e-011 4.39727e-026   
     length 0.691454   
     axis -2.80598e-014 -90 -90   XYZ
    dof rx rz
    limits (-90.0 90.0)
           (-45.0 45.0)
  end
  begin
     id 29
     name rfingers
     direction -1 -4.49097e-011 8.79388e-026   
     length 0.557468   
     axis -5.61193e-014 -90 -90   XYZ
    dof rx
    limits (0.0 90.0)
  end
  begin
     id 30
     name rthumb
     direction -0.707107 -6.34938e-011 0.707107   
     length 0.800416   
     axis -90 -45 9.86923e-015   XYZ
    dof rx rz
    limits (-45.0 45.0)
           (-45.0 45.0)
  end
:hierarchy
  begin
    root lhipjoint rhipjoint lowerback
    lhipjoint lfemur
    lfemur ltibia
    ltibia lfoot
    lfoot ltoes
    rhipjoint rfemur
    rfemur rtibia
    rtibia rfoot
    rfoot rtoes
    lowerback upperback
    upperback thorax
    thorax lowerneck lclavicle rclavicle
    lowerneck upperneck
    upperneck head
    lclavicle lhumerus
    lhumerus lradius
    lradius lwrist
    lwrist lhand lthumb
    lhand lfingers
    rclavicle rhumerus
    rhumerus rradius
    rradius rwrist
    rwrist rhand rthumb
    rhand rfingers
  end

#!OML:ASF H:\BabyWalks\Project 1\Capture day 1\Session 1\baby.ASF
:FULLY-SPECIFIED
:DEGREES
56
root -37.4306 17.523 -2.99676 -12.0178 72.3273 -11.1438
lowerback 15.0976 -1.14718 0.346185
upperback 6.20627 -1.08124 3.16359
thorax -1.83713 -0.453358 3.2939
lowerneck -3.68624 6.27027 -0.309153
upperneck -2.11971 8.41482 -6.56311
head 0.244201 4.22159 -1.85875
rclavicle -2.3556e-014 -9.54166e-015
rhumerus -35.1207 19.2824 -80.1254
rradius 47.2912
rwrist 3.93828
rhand -6.99418 -16.5175
rfingers 7.12502
rthumb 18.8764 -45.6216
lclavicle -2.3556e-014 -9.54166e-015
lhumerus -37.3821 0.873923 81.4433
lradius 49.9304
lwrist 0.53397
lhand 0.715381 12.4
lfingers 7.12502
lthumb 26.2754 40.6005
rfemur 0.911139 13.2419 25.4841
rtibia 22.2015
rfoot -23.5506 1.59376
rtoes 9.38436
lfemur -16.4044 1.24395 -10.9196
ltibia 32.2367
lfoot -14.0066 -15.9803
ltoes 19.9784
57
root -37.4309 17.523 -2.99247 -12.0528 72.2719 -11.1554
lowerback 15.0905 -1.13706 0.357146
upperback 6.20628 -1.06724 3.15628
thorax -1.83452 -0.44632 3.2775
lowerneck -3.67186 6.26445 -0.307307
upperneck -2.06416 8.40923 -6.57546
head 0.259612 4.21733 -1.86247
rclavicle -1.86858e-014 2.34566e-014
rhumerus -35.1493 19.3179 -80.2113
rradius 47.3765
rwrist 3.88562
rhand -7.00836 -16.5128
rfingers 7.12502
rthumb 18.8628 -45.6182
lclavicle -1.86858e-014 2.34566e-014
lhumerus -37.369 0.835255 81.4008
lradius 49.9553
lwrist 0.553914
lhand 0.70898 12.3911
lfingers 7.12502
lthumb 26.2693 40.5925
rfemur 0.934031 13.2308 25.5125
rtibia 22.1975
rfoot -23.4987 1.65008
rtoes 9.26697
lfemur -16.3516 1.47979 -10.873
ltibia 32.2162
lfoot -13.986 -16.0624
ltoes 19.6701
58
root -37.4312 17.5229 -2.98837 -12.1008 72.2121 -11.1765
lowerback 15.0922 -1.12939 0.377849
upperback 6.20402 -1.05485 3.14805
thorax -1.83917 -0.439869 3.25513
lowerneck -3.65856 6.26112 -0.304417
upperneck -2.00993 8.40696 -6.59207
head 0.275161 4.21474 -1.86764
rclavicle -8.24956e-015 1.59028e-015
rhumerus -35.1817 19.3606 -80.3048
rradius 47.4603
rwrist 3.83841
rhand -7.01864 -16.5096
rfingers 7.12502
rthumb 18.8529 -45.6159
lclavicle -8.24956e-015 1.59028e-015
lhumerus -37.3638 0.801854 81.3559
lradius 49.9772
lwrist 0.571754
lhand 0.706942 12.385
lfingers 7.12502
lthumb 26.2673 40.5867
rfemur 0.964329 13.218 25.5437
rtibia 22.1866
rfoot -23.4396 1.71266
rtoes 9.12891
lfemur -16.2954 1.69887 -10.8231
ltibia 32.2014
lfoot -13.9923 -16.1339
ltoes 19.5286
59
root -37.4315 17.5228 -2.98446 -12.1555 72.1536 -11.2035
lowerback 15.1026 -1.12461 0.405232
upperback 6.19786 -1.04509 3.13954
thorax -1.85249 -0.434567 3.22934
lowerneck -3.64581 6.26071 -0.297776
upperneck -1.95712 8.40852 -6.61578
head 0.291009 4.21408 -1.87563
rclavicle 7.15625e-015 -1.19271e-014
rhumerus -35.2201 19.4089 -80.4042
rradius 47.5432
rwrist 3.79917
rhand -7.02565 -16.5015
rfingers 7.12502
rthumb 18.8462 -45.6085
lclavicle 7.15625e-015 -1.19271e-014
lhumerus -37.3657 0.772143 81.3109
lradius 49.9956
lwrist 0.589387
lhand 0.705791 12.3807
lfingers 7.12502
lthumb 26.2662 40.5826
rfemur 0.998114 13.1962 25.5742
rtibia 22.1699
rfoot -23.3795 1.7794
rtoes 8.9363
lfemur -16.241 1.89442 -10.7733
ltibia 32.192
lfoot -14.0219 -16.1996
ltoes 19.5563
60
root -37.4319 17.5223 -2.98078 -12.2104 72.1011 -11.2297
lowerback 15.1153 -1.12311 0.435853
upperback 6.19176 -1.03908 3.13073
thorax -1.86681 -0.431054 3.20207
lowerneck -3.6359 6.26201 -0.287572
upperneck -1.90785 8.41225 -6.64513
head 0.30675 4.21455 -1.88594
rclavicle -1.83876e-014 3.57812e-015
rhumerus -35.2604 19.4634 -80.5063
rradius 47.6294
rwrist 3.76297
rhand -7.02817 -16.4989
rfingers 7.12502
rthumb 18.8437 -45.6061
lclavicle -1.83876e-014 3.57812e-015
lhumerus -37.3688 0.745975 81.267
lradius 50.0108
lwrist 0.603
lhand 0.706173 12.376
lfingers 7.12502
lthumb 26.2666 40.5778
rfemur 1.03611 13.164 25.6012
rtibia 22.1494
rfoot -23.3175 1.84792
rtoes 8.70599
lfemur -16.1906 2.06145 -10.727
ltibia 32.1888
lfoot -14.0722 -16.2635
ltoes 19.7251
61
root -37.4325 17.5218 -2.97726 -12.2588 72.0593 -11.2511
lowerback 15.128 -1.1255 0.466822
upperback 6.18435 -1.0381 3.12217
thorax -1.88226 -0.430041 3.1757
lowerneck -3.62512 6.2641 -0.270244
upperneck -1.86502 8.41663 -6.68566
head 0.321246 4.21549 -1.90116
rclavicle 3.8266e-014 -2.22639e-014
rhumerus -35.3085 19.5248 -80.6096
rradius 47.7251
rwrist 3.7295
rhand -7.01896 -16.4956
rfingers 7.12502
rthumb 18.8526 -45.6019
lclavicle 3.8266e-014 -2.22639e-014
lhumerus -37.3752 0.723824 81.226
lradius 50.0242
lwrist 0.613983
lhand 0.704142 12.3734
lfingers 7.12502
lthumb 26.2646 40.5755
rfemur 1.0712 13.1083 25.6196
rtibia 22.1276
rfoot -23.2619 1.92653
rtoes 8.42839
lfemur -16.1468 2.19147 -10.6874
ltibia 32.1894
lfoot -14.1462 -16.3207
ltoes 20.0164
62
root -37.4331 17.5211 -2.97391 -12.2983 72.0346 -11.267
lowerback 15.1326 -1.13243 0.496576
upperback 6.17891 -1.04339 3.11444
thorax -1.89096 -0.432204 3.1517
lowerneck -3.61382 6.26547 -0.247449
upperneck -1.83162 8.41955 -6.73561
head 0.333395 4.21597 -1.92054
rclavicle 5.19822e-014 -5.92378e-014
rhumerus -35.3578 19.5869 -80.709
rradius 47.8313
rwrist 3.69787
rhand -6.9983 -16.4957
rfingers 7.12502
rthumb 18.8725 -45.6001
lclavicle 5.19822e-014 -5.92378e-014
lhumerus -37.3769 0.703043 81.1906
lradius 50.0342
lwrist 0.620994
lhand 0.699125 12.3678
lfingers 7.12502
lthumb 26.2598 40.5706
rfemur 1.10387 13.0525 25.6336
rtibia 22.1076
rfoot -23.2119 1.9875
rtoes 8.12544
lfemur -16.1142 2.28071 -10.6568
ltibia 32.1935
lfoot -14.2285 -16.3689
ltoes 20.2451
63
root -37.4338 17.5204 -2.9707 -12.3321 72.0216 -11.28
lowerback 15.1323 -1.14172 0.524699
upperback 6.17396 -1.05202 3.10882
thorax -1.8963 -0.436088 3.13128
lowerneck -3.60068 6.26653 -0.219893
upperneck -1.80507 8.42165 -6.79331
head 0.34368 4.21624 -1.94342
rclavicle 2.44505e-014 -2.98177e-014
rhumerus -35.4136 19.652 -80.8048
rradius 47.9496
rwrist 3.66012
rhand -6.97324 -16.4984
rfingers 7.12502
rthumb 18.8966 -45.6005
lclavicle 2.44505e-014 -2.98177e-014
lhumerus -37.3776 0.684812 81.1621
lradius 50.042
lwrist 0.62214
lhand 0.693524 12.3645
lfingers 7.12502
lthumb 26.2545 40.5681
rfemur 1.13177 12.9959 25.6444
rtibia 22.0914
rfoot -23.1761 2.03924
rtoes 7.86192
lfemur -16.089 2.33471 -10.6325
ltibia 32.1985
lfoot -14.3134 -16.4058
ltoes 20.3807
64
root -37.4344 17.5196 -2.96756 -12.3578 72.0212 -11.287
lowerback 15.1252 -1.15342 0.550309
upperback 6.17069 -1.06427 3.10466
thorax -1.89597 -0.441847 3.11424
lowerneck -3.58534 6.26649 -0.186071
upperneck -1.78962 8.4216 -6.85997
head 0.350805 4.21577 -1.97059
rclavicle -5.66536e-015 -1.43125e-014
rhumerus -35.4741 19.7187 -80.8961
rradius 48.0793
rwrist 3.61548
rhand -6.94156 -16.5103
rfingers 7.12502
rthumb 18.927 -45.6094
lclavicle -5.66536e-015 -1.43125e-014
lhumerus -37.3757 0.667504 81.1404
lradius 50.0468
lwrist 0.619645
lhand 0.685013 12.3649
lfingers 7.12502
lthumb 26.2463 40.5697
rfemur 1.15743 12.945 25.6526
rtibia 22.0794
rfoot -23.1488 2.0733
rtoes 7.61253
lfemur -16.0713 2.36015 -10.6158
ltibia 32.2067
lfoot -14.3913 -16.4334
ltoes 20.3148
65
root -37.4348 17.5187 -2.96448 -12.3768 72.0296 -11.2897
lowerback 15.1122 -1.16693 0.574692
upperback 6.16819 -1.0792 3.10157
thorax -1.89153 -0.44899 3.0993
lowerneck -3.57016 6.26652 -0.147615
upperneck -1.7807 8.42129 -6.93242
head 0.356411 4.21534 -2.00055
rclavicle -1.38155e-014 5.56597e-014
rhumerus -35.5397 19.7861 -80.9842
rradius 48.2166
rwrist 3.565
rhand -6.90875 -16.5217
rfingers 7.12502
rthumb 18.9586 -45.6177
lclavicle -1.38155e-014 5.56597e-014
lhumerus -37.3735 0.652963 81.1243
lradius 50.0491
lwrist 0.613029
lhand 0.676462 12.3694
lfingers 7.12502
lthumb 26.2381 40.5754
rfemur 1.18044 12.9088 25.6609
rtibia 22.0717
rfoot -23.1239 2.08635
rtoes 7.37914
lfemur -16.0601 2.35609 -10.6048
ltibia 32.2192
lfoot -14.4818 -16.4449
ltoes 20.272
66
root -37.4351 17.5175 -2.96144 -12.3975 72.0425 -11.2946
lowerback 15.1011 -1.18083 0.600461
upperback 6.16403 -1.09433 3.09978
thorax -1.88985 -0.456206 3.08505
lowerneck -3.55287 6.26599 -0.103993
upperneck -1.77794 8.41977 -7.00981
head 0.360184 4.2145 -2.03323
rclavicle -3.46879e-014 9.14409e-015
rhumerus -35.6109 19.8514 -81.0697
rradius 48.3544
rwrist 3.50482
rhand -6.88283 -16.5282
rfingers 7.12502
rthumb 18.9835 -45.6218
lclavicle -3.46879e-014 9.14409e-015
lhumerus -37.3745 0.638431 81.1135
lradius 50.0471
lwrist 0.602714
lhand 0.665827 12.3721
lfingers 7.12502
lthumb 26.228 40.5796
rfemur 1.20339 12.8881 25.6728
rtibia 22.0715
rfoot -23.111 2.08236
rtoes 7.1927
lfemur -16.0539 2.32637 -10.5957
ltibia 32.239
lfoot -14.5697 -16.4406
ltoes 20.0239
